<?xml version="1.0" encoding="utf-8"?>
<!-- Generator: Adobe Illustrator 24.0.2, SVG Export Plug-In . SVG Version: 6.00 Build 0)  -->
<svg version="1.1" id="Logos" xmlns="http://www.w3.org/2000/svg" xmlns:xlink="http://www.w3.org/1999/xlink" x="0px" y="0px"
	 viewBox="0 0 1150 241.1" style="enable-background:new 0 0 1150 241.1;" xml:space="preserve">
<style type="text/css">
	.st0{fill:#EE0000;}
</style>
<title>Logo-Red_Hat-OpenShift-A-Standard-RGB</title>
<path d="M263.4,220.7c-21.2,0-37.9-16.5-37.9-37.5s16.6-37.6,37.9-37.6s38,16.5,38,37.6S284.6,220.7,263.4,220.7z M263.4,155.7
	c-15.1,0-26.7,11.9-26.7,27.5s11.6,27.4,26.7,27.4c15.1,0,26.8-12,26.8-27.4S278.6,155.7,263.4,155.7z"/>
<path d="M311.8,166.6H322v5.1c4.5-3.9,10.3-6,16.2-5.9c15,0,26.7,12,26.7,27.2s-11.8,27.4-26.9,27.4c-5.7,0-11.3-1.8-15.9-5.2v25.9
	h-10.4L311.8,166.6z M322.1,181.2v23.9c3.3,3.9,8.8,6.2,14.8,6.2c10.2,0,17.9-7.8,17.9-18.2s-7.8-18.3-17.9-18.3
	C330.9,174.8,325.6,177.1,322.1,181.2z"/>
<path d="M400.5,220.5c-15.6,0-27.8-12-27.8-27.4c0-15.3,11.6-27.2,26.5-27.2c14.6,0,25.6,12.1,25.6,27.7v3H383
	c1.3,8.8,9,15.3,17.9,15.2c4.9,0.1,9.6-1.5,13.4-4.6l6.7,6.6C415.1,218.2,407.9,220.6,400.5,220.5z M383.1,188.6h31.4
	c-1.6-8.1-7.8-14.1-15.5-14.1C391,174.5,384.6,180.2,383.1,188.6z"/>
<path d="M434.7,166.6h10.4v5.3c4.2-4.2,10-6.5,15.9-6.4c12.2,0,20.7,8.4,20.7,20.7v33.3h-10.4V188c0-8.3-5.1-13.4-13.1-13.4
	c-5.3-0.2-10.3,2.4-13.1,6.9v38.1h-10.4L434.7,166.6z"/>
<path d="M495,199.8c7.9,7.7,16,11.4,25.1,11.4c10.5,0,17.7-5,17.7-12.2c0-6.4-4.2-9.7-14.8-11.4l-12.2-2
	c-13.3-2.2-19.9-8.4-19.9-18.9c0-12.7,10.6-20.9,26.8-20.9c10.6,0,20.9,3.5,29.3,9.9l-6,8.3c-7.9-6-15.7-8.9-23.8-8.9
	c-9.5,0-15.8,4.4-15.8,10.8c0,5.9,3.6,8.7,13,10.3l11.7,1.8c15.4,2.5,22.4,8.8,22.4,20.2c0,13.4-11.7,22.4-29,22.4
	c-11.7,0-23-4.7-31.2-13.1L495,199.8z"/>
<path d="M557.4,146.7l10.4-2.3v27.5c4.2-4.2,10-6.5,15.9-6.4c12.2,0,20.7,8.4,20.7,20.7v33.3H594V188c0-8.3-5.1-13.4-13.1-13.4
	c-5.3-0.2-10.2,2.4-13.1,6.9v38.1h-10.4V146.7z"/>
<path d="M615.2,151.6c0-3.5,2.8-6.4,6.3-6.4c0,0,0,0,0,0c3.6,0.1,6.3,3.1,6.2,6.7c-0.1,3.4-2.8,6.1-6.2,6.2
	C618,158,615.2,155.2,615.2,151.6C615.2,151.6,615.2,151.6,615.2,151.6z M626.8,219.5h-10.4v-52.9h10.4V219.5z"/>
<path d="M646.9,166.6v-8c0-11,6.3-17.1,18-17.1c2.5,0,5,0.3,7.5,0.9v9.1c-2.1-0.7-4.3-1-6.5-0.9c-5.7,0-8.5,2.6-8.5,8.2v7.8h15.1
	v8.7h-15.1v44.2h-10.4v-44.2h-12.3v-8.8H646.9z"/>
<path d="M688.2,175.3H677v-8.7h11.2v-13.5l10.3-2.5v16h15.6v8.7h-15.6V204c0,5.4,2.2,7.4,7.8,7.4c2.6,0.1,5.2-0.4,7.6-1.2v8.7
	c-3.2,1-6.5,1.5-9.9,1.6c-10.3,0-15.8-4.9-15.8-14L688.2,175.3z"/>
<path class="st0" d="M129,85c12.5,0,30.6-2.6,30.6-17.5c0-1.1-0.1-2.3-0.3-3.4l-7.4-32.4c-1.7-7.1-3.2-10.4-15.7-16.6
	C126.4,10.2,105.3,2,99,2c-5.8,0-7.6,7.5-14.4,7.5c-6.7,0-11.6-5.6-17.9-5.6c-6,0-9.9,4.1-12.9,12.5c0,0-8.4,23.7-9.5,27.2
	c-0.2,0.6-0.3,1.3-0.2,1.9C44,54.8,80.3,85,129,85 M161.6,73.6c1.7,8.2,1.7,9.1,1.7,10.1c0,14-15.7,21.8-36.4,21.8
	C80,105.5,39.1,78.1,39.1,60c0-2.5,0.5-5,1.5-7.3C23.8,53.5,2,56.5,2,75.7C2,107.2,76.6,146,135.6,146c45.3,0,56.7-20.5,56.7-36.7
	C192.3,96.6,181.3,82.2,161.6,73.6"/>
<path d="M161.5,73.6c1.7,8.2,1.7,9.1,1.7,10.1c0,14-15.7,21.8-36.4,21.8C80,105.5,39.1,78.1,39.1,60c0-2.5,0.5-5,1.5-7.3l3.7-9.1
	c-0.2,0.6-0.3,1.3-0.2,1.9C44,54.8,80.3,85,129,85c12.5,0,30.6-2.6,30.6-17.5c0-1.1-0.1-2.3-0.3-3.4L161.5,73.6z"/>
<path d="M581.2,94.3c0,11.9,7.2,17.7,20.2,17.7c4-0.1,8-0.7,11.9-1.7V96.5c-2.5,0.8-5.1,1.2-7.7,1.2c-5.4,0-7.4-1.7-7.4-6.7V69.8
	h15.6V55.6h-15.6v-18l-17,3.7v14.3H570v14.2h11.2L581.2,94.3z M528.2,94.6c0-3.7,3.7-5.5,9.3-5.5c3.4,0,6.8,0.4,10.1,1.3v7.2
	c-3.2,1.8-6.9,2.7-10.6,2.6C531.5,100.2,528.3,98.1,528.2,94.6 M533.5,112.2c6,0,10.8-1.3,15.4-4.3v3.4h16.8V75.6
	c0-13.6-9.1-21-24.4-21c-8.5,0-16.9,2-26,6.1l6.1,12.5c6.5-2.7,12-4.4,16.8-4.4c7,0,10.6,2.7,10.6,8.3v2.7
	c-4.1-1.1-8.4-1.6-12.6-1.6c-14.3,0-22.9,6-22.9,16.7C513.3,104.8,521,112.2,533.5,112.2 M441,111.3h18.1V82.4h30.3v28.8h18.1V37.6
	h-18.1v28.3h-30.3V37.6H441L441,111.3z M372.1,83.4c0-8,6.3-14.1,14.6-14.1c4.3-0.1,8.5,1.4,11.8,4.3V93c-3.2,3-7.4,4.6-11.8,4.4
	C378.5,97.4,372.1,91.3,372.1,83.4 M398.7,111.2h16.8V33.9l-17,3.7v20.9c-4.3-2.5-9.2-3.7-14.2-3.7c-16.2,0-28.9,12.5-28.9,28.5
	c-0.2,15.6,12.3,28.4,27.9,28.6c0.2,0,0.3,0,0.5,0c5.4,0,10.6-1.7,14.9-4.8V111.2z M321.5,68.5c5.4,0,9.9,3.5,11.7,8.8H310
	C311.7,71.8,315.9,68.5,321.5,68.5 M292.8,83.5c0,16.2,13.2,28.8,30.3,28.8c9.4,0,16.2-2.5,23.2-8.4l-11.3-10
	c-2.6,2.7-6.5,4.2-11.1,4.2c-5.9,0.2-11.4-3.3-13.7-8.8h39.6v-4.2c0-17.7-11.9-30.4-28.1-30.4c-15.8-0.2-28.8,12.4-29,28.1
	C292.8,83,292.8,83.2,292.8,83.5 M263.5,53.1c6,0,9.4,3.8,9.4,8.3s-3.4,8.3-9.4,8.3h-17.9V53.1H263.5z M227.5,111.2h18.1V84.4h13.8
	l13.9,26.8h20.2l-16.2-29.5c8.4-3.4,13.9-11.6,13.9-20.7c0-13.2-10.4-23.5-26-23.5h-37.6L227.5,111.2z"/>
</svg>
