<?xml version="1.0" encoding="utf-8"?>
<!-- Generator: Adobe Illustrator 24.0.2, SVG Export Plug-In . SVG Version: 6.00 Build 0)  -->
<svg version="1.1" id="Layer_1" xmlns="http://www.w3.org/2000/svg" xmlns:xlink="http://www.w3.org/1999/xlink" x="0px" y="0px"
	 viewBox="0 0 1150 240.1" style="enable-background:new 0 0 1150 240.1;" xml:space="preserve">
<style type="text/css">
	.st0{fill:#EE0000;}
</style>
<title>Logo-Red_Hat-Enterprise_Linux-A-Standard-RGB</title>
<g>
	<path d="M227.6,145.7h53.7v9.6h-42.8v21.9h28.1v9.4h-28.1V209h43.2v9.6h-54.1V145.7z"/>
	<path d="M291.7,165.6h10.4v5.3c4.2-4.2,9.9-6.5,15.9-6.3c12.2,0,20.7,8.4,20.7,20.7v33.3h-10.4V187c0-8.3-5.1-13.4-13.1-13.4
		c-5.3-0.2-10.2,2.4-13.1,6.9v38.1h-10.4L291.7,165.6z"/>
	<path d="M355.5,174.3h-11.2v-8.7h11.2v-13.5l10.3-2.5v16h15.6v8.7h-15.6V203c0,5.4,2.2,7.4,7.8,7.4c2.6,0.1,5.2-0.4,7.6-1.2v8.7
		c-3.2,1-6.5,1.5-9.9,1.6c-10.3,0-15.8-4.9-15.8-14V174.3z"/>
	<path d="M413.3,219.5c-15.6,0-27.8-12-27.8-27.4c0-15.3,11.6-27.2,26.5-27.2c14.6,0,25.6,12.1,25.6,27.7v3h-41.8
		c1.3,8.8,9,15.3,17.9,15.2c4.9,0.1,9.6-1.5,13.4-4.6l6.7,6.6C428,217.2,420.7,219.7,413.3,219.5z M395.9,187.6h31.4
		c-1.6-8.1-7.8-14.1-15.5-14.1C403.8,173.5,397.5,179.2,395.9,187.6z"/>
	<path d="M447.5,165.6h10.4v6.8c3.1-5,8.6-8.1,14.6-7.9c1.8-0.1,3.6,0.2,5.3,0.8v9.4c-2-0.7-4-1.1-6.1-1.1c-6.1,0-11,3.3-13.7,9.7
		v35.4h-10.4L447.5,165.6z"/>
	<path d="M486.1,165.6h10.3v5.1c4.5-3.9,10.3-6,16.2-5.9c15,0,26.7,12,26.7,27.2s-11.8,27.4-26.9,27.4c-5.7,0-11.3-1.8-15.9-5.2
		v25.9h-10.4L486.1,165.6z M496.5,180.2v23.9c3.3,3.9,8.8,6.2,14.8,6.2c10.2,0,17.9-7.8,17.9-18.2s-7.8-18.3-17.9-18.3
		C505.2,173.8,499.9,176.1,496.5,180.2z"/>
	<path d="M549.2,165.6h10.4v6.8c3.1-5,8.6-8.1,14.6-7.9c1.8-0.1,3.6,0.2,5.3,0.8v9.4c-2-0.7-4-1.1-6.1-1.1c-6.1,0-11,3.3-13.7,9.7
		v35.4h-10.4V165.6z"/>
	<path d="M586.7,150.6c0-3.5,2.8-6.4,6.3-6.4c0,0,0,0,0,0c3.6-0.1,6.6,2.6,6.7,6.2c0.1,3.6-2.6,6.6-6.2,6.7c-0.2,0-0.3,0-0.5,0
		C589.5,157,586.6,154.2,586.7,150.6C586.7,150.6,586.7,150.6,586.7,150.6z M598.2,218.5h-10.4v-52.9h10.4L598.2,218.5z"/>
	<path d="M611.1,204.8c5.5,4.4,11.3,6.7,17.3,6.7c7.5,0,12.7-3.2,12.7-7.9c0-3.7-2.7-5.9-8.5-6.8l-9.5-1.4
		c-10.5-1.6-15.8-6.4-15.8-14.7c0-9.6,8.3-16,20.7-16c7.6,0,15.1,2.3,21.3,6.8l-5.3,6.9c-5.8-3.9-11.1-5.5-16.8-5.5
		c-6.3,0-10.6,2.9-10.6,7.2c0,3.9,2.5,5.7,8.7,6.6l9.6,1.4c10.5,1.6,16,6.6,16,14.8c0,9.5-9.6,16.6-22.2,16.6
		c-9.2,0-17.4-2.7-23.2-7.8L611.1,204.8z"/>
	<path d="M684.7,219.5c-15.6,0-27.8-12-27.8-27.4c0-15.3,11.7-27.2,26.5-27.2c14.6,0,25.6,12.1,25.6,27.7v3h-41.8
		c1.3,8.8,9,15.3,17.9,15.2c4.9,0.1,9.6-1.5,13.4-4.6l6.7,6.6C699.4,217.2,692.2,219.6,684.7,219.5z M667.4,187.6h31.4
		c-1.6-8.1-7.8-14.1-15.5-14.1C675.3,173.5,668.9,179.2,667.4,187.6z"/>
	<path d="M741.9,145.7h10.9v63.1h41.9v9.7h-52.8V145.7z"/>
	<path d="M803.4,150.6c0-3.5,2.8-6.4,6.3-6.4c0,0,0,0,0,0c3.6-0.1,6.6,2.6,6.7,6.2c0.1,3.6-2.6,6.6-6.2,6.7c-0.2,0-0.3,0-0.5,0
		C806.2,157,803.4,154.2,803.4,150.6C803.4,150.6,803.4,150.6,803.4,150.6z M814.9,218.5h-10.4v-52.9h10.4V218.5z"/>
	<path d="M827.2,165.6h10.4v5.3c4.2-4.2,10-6.5,15.9-6.3c12.2,0,20.7,8.4,20.7,20.7v33.3h-10.4V187c0-8.3-5.1-13.4-13.1-13.4
		c-5.3-0.2-10.3,2.4-13.1,6.9v38.1h-10.4V165.6z"/>
	<path d="M895.8,197c0,8.3,5.1,13.5,13.1,13.5c5.3,0.1,10.2-2.5,13-7v-38h10.4v52.9H922v-5.3c-4.2,4.3-10,6.6-16,6.4
		c-12.2,0-20.6-8.5-20.6-20.8v-33.2h10.4L895.8,197z"/>
	<path d="M959.3,191.4l-19.8-25.8h12.2l13.6,18.2l13.6-18.2h11.8l-19.5,25.7l20.9,27.2h-12.2L965.2,199l-14.8,19.6h-11.8
		L959.3,191.4z"/>
	<path class="st0" d="M128,84c12.5,0,30.6-2.6,30.6-17.5c0-1.1-0.1-2.3-0.3-3.4l-7.4-32.4c-1.7-7.1-3.2-10.4-15.7-16.6
		C125.4,9.2,104.3,1,98,1c-5.8,0-7.6,7.5-14.4,7.5c-6.7,0-11.6-5.6-17.9-5.6c-6,0-9.9,4.1-12.9,12.5c0,0-8.4,23.7-9.5,27.2
		c-0.2,0.6-0.3,1.3-0.2,1.9C43,53.8,79.3,84,128,84 M160.6,72.6c1.7,8.2,1.7,9.1,1.7,10.1c0,14-15.7,21.8-36.4,21.8
		C79,104.5,38.1,77.1,38.1,59c0-2.5,0.5-5,1.5-7.3C22.8,52.5,1,55.5,1,74.7C1,106.2,75.6,145,134.6,145c45.3,0,56.7-20.5,56.7-36.7
		C191.3,95.6,180.3,81.2,160.6,72.6"/>
	<path d="M160.5,72.6c1.7,8.2,1.7,9.1,1.7,10.1c0,14-15.7,21.8-36.4,21.8C79,104.5,38.1,77.1,38.1,59c0-2.5,0.5-5,1.5-7.3l3.7-9.1
		c-0.2,0.6-0.3,1.3-0.2,1.9C43,53.8,79.3,84,128,84c12.5,0,30.6-2.6,30.6-17.5c0-1.1-0.1-2.3-0.3-3.4L160.5,72.6z"/>
	<path d="M580.2,93.3c0,11.9,7.2,17.7,20.2,17.7c4-0.1,8-0.7,11.9-1.7V95.5c-2.5,0.8-5.1,1.2-7.7,1.2c-5.4,0-7.4-1.7-7.4-6.7V68.8
		h15.6V54.6h-15.6v-18l-17,3.7v14.3H569v14.2h11.2L580.2,93.3z M527.2,93.6c0-3.7,3.7-5.5,9.3-5.5c3.4,0,6.8,0.4,10.1,1.3v7.2
		c-3.2,1.8-6.9,2.7-10.6,2.6C530.5,99.2,527.3,97.1,527.2,93.6 M532.5,111.2c6,0,10.8-1.3,15.4-4.3v3.4h16.8V74.6
		c0-13.6-9.1-21-24.4-21c-8.5,0-16.9,2-26,6.1l6.1,12.5c6.5-2.7,12-4.4,16.8-4.4c7,0,10.6,2.7,10.6,8.3v2.7
		c-4.1-1.1-8.4-1.6-12.6-1.6c-14.3,0-22.9,6-22.9,16.7C512.3,103.8,520,111.2,532.5,111.2 M440,110.3h18.1V81.4h30.3v28.8h18.1V36.6
		h-18.1v28.3h-30.3V36.6H440L440,110.3z M371.1,82.4c0-8,6.3-14.1,14.6-14.1c4.3-0.1,8.5,1.4,11.8,4.3V92c-3.2,3-7.4,4.6-11.8,4.4
		C377.5,96.4,371.1,90.3,371.1,82.4 M397.7,110.2h16.8V32.9l-17,3.7v20.9c-4.3-2.5-9.2-3.7-14.2-3.7c-16.2,0-28.9,12.5-28.9,28.5
		c-0.2,15.6,12.3,28.4,27.9,28.6c0.2,0,0.3,0,0.5,0c5.4,0,10.6-1.7,14.9-4.8V110.2z M320.5,67.5c5.4,0,9.9,3.5,11.7,8.8H309
		C310.7,70.8,314.9,67.5,320.5,67.5 M291.8,82.5c0,16.2,13.2,28.8,30.3,28.8c9.4,0,16.2-2.5,23.2-8.4l-11.3-10
		c-2.6,2.7-6.5,4.2-11.1,4.2c-5.9,0.2-11.4-3.3-13.7-8.8h39.6v-4.2c0-17.7-11.9-30.4-28.1-30.4c-15.8-0.2-28.8,12.4-29,28.1
		C291.8,82,291.8,82.2,291.8,82.5 M262.5,52.1c6,0,9.4,3.8,9.4,8.3s-3.4,8.3-9.4,8.3h-17.9V52.1H262.5z M226.5,110.2h18.1V83.4h13.8
		l13.9,26.8h20.2l-16.2-29.5c8.4-3.4,13.9-11.6,13.9-20.7c0-13.2-10.4-23.5-26-23.5h-37.6L226.5,110.2z"/>
</g>
</svg>
