<?xml version="1.0" encoding="utf-8"?>
<!-- Generator: Adobe Illustrator 24.0.2, SVG Export Plug-In . SVG Version: 6.00 Build 0)  -->
<svg version="1.1" id="fee93370-eb05-42d0-9a05-6923c44f7709"
	 xmlns="http://www.w3.org/2000/svg" xmlns:xlink="http://www.w3.org/1999/xlink" x="0px" y="0px" viewBox="0 0 1150 350"
	 style="enable-background:new 0 0 1150 350;" xml:space="preserve">
<style type="text/css">
	.st0{fill:#EE0000;}
</style>
<g>
	<g>
		<path d="M262.5,220.7c-21.2,0-37.9-16.5-37.9-37.5s16.6-37.6,37.9-37.6s38,16.5,38,37.6S283.7,220.7,262.5,220.7z M262.5,155.7
			c-15.1,0-26.7,11.9-26.7,27.5s11.6,27.4,26.7,27.4c15.1,0,26.8-12,26.8-27.4S277.6,155.7,262.5,155.7z"/>
		<path d="M310.8,166.6h10.3v5.1c4.5-3.9,10.3-6,16.2-5.9c15,0,26.7,12,26.7,27.2s-11.8,27.4-26.9,27.4c-5.7,0-11.3-1.8-15.9-5.2
			v25.9h-10.4L310.8,166.6z M321.2,181.2v23.9c3.3,3.9,8.8,6.2,14.8,6.2c10.2,0,17.9-7.8,17.9-18.2s-7.8-18.3-17.9-18.3
			C329.9,174.8,324.6,177.1,321.2,181.2L321.2,181.2z"/>
		<path d="M399.5,220.5c-15.6,0-27.8-12-27.8-27.4c0-15.3,11.6-27.2,26.5-27.2c14.6,0,25.6,12.1,25.6,27.7v3h-41.8
			c1.3,8.8,9,15.3,17.9,15.2c4.9,0.1,9.6-1.5,13.4-4.6l6.7,6.6C414.2,218.2,407,220.6,399.5,220.5z M382.2,188.6h31.4
			c-1.6-8.1-7.8-14.1-15.5-14.1C390.1,174.5,383.7,180.2,382.2,188.6z"/>
		<path d="M433.7,166.6h10.4v5.3c4.2-4.2,10-6.5,15.9-6.3c12.2,0,20.7,8.4,20.7,20.7v33.3h-10.4V188c0-8.3-5.1-13.4-13.1-13.4
			c-5.3-0.2-10.3,2.4-13.1,6.9v38.1h-10.4L433.7,166.6z"/>
		<path d="M494.1,199.8c7.9,7.7,16,11.4,25.1,11.4c10.5,0,17.7-5,17.7-12.2c0-6.4-4.2-9.7-14.8-11.4l-12.2-2
			c-13.3-2.2-19.9-8.4-19.9-18.9c0-12.7,10.6-20.9,26.8-20.9c10.6,0,20.9,3.5,29.3,9.9l-6,8.3c-7.9-6-15.7-8.9-23.8-8.9
			c-9.5,0-15.8,4.4-15.8,10.8c0,5.9,3.6,8.7,13,10.3l11.7,1.8c15.4,2.5,22.4,8.8,22.4,20.2c0,13.4-11.7,22.4-29,22.4
			c-11.7,0-23-4.7-31.2-13.1L494.1,199.8z"/>
		<path d="M556.5,146.7l10.4-2.3v27.4c4.2-4.2,10-6.5,15.9-6.3c12.2,0,20.7,8.4,20.7,20.7v33.3h-10.4V188c0-8.3-5.1-13.4-13.1-13.4
			c-5.3-0.2-10.2,2.4-13.1,6.9v38.1h-10.4V146.7z"/>
		<path d="M614.3,151.6c0-3.5,2.8-6.4,6.3-6.4c0,0,0,0,0,0c3.6-0.1,6.6,2.6,6.7,6.2c0.1,3.6-2.6,6.6-6.2,6.7c-0.2,0-0.3,0-0.5,0
			C617.1,158,614.2,155.2,614.3,151.6C614.3,151.6,614.3,151.6,614.3,151.6z M625.8,219.5h-10.4v-52.9h10.4V219.5z"/>
		<path d="M646,166.6v-8c0-11,6.3-17.1,18-17.1c2.5,0,5,0.3,7.5,0.9v9.1c-2.1-0.7-4.3-1-6.5-0.9c-5.7,0-8.5,2.6-8.5,8.2v7.8h15.1
			v8.7h-15.1v44.2H646v-44.2h-12.3v-8.8H646z"/>
		<path d="M687.3,175.3h-11.2v-8.7h11.2v-13.5l10.3-2.5v16h15.6v8.7h-15.6V204c0,5.4,2.2,7.4,7.8,7.4c2.6,0.1,5.2-0.4,7.6-1.2v8.7
			c-3.2,1-6.5,1.5-9.9,1.6c-10.3,0-15.8-4.9-15.8-14L687.3,175.3z"/>
		<path d="M251.1,254.7h9.7l29.9,72.8h-8.7l-9.1-22.9h-34.4l-9.3,22.9h-8.3L251.1,254.7z M269.9,297.8l-14.2-35.6l-14.4,35.6H269.9z
			"/>
		<path d="M297.5,275.4h7.6v5.6c4.6-4.3,10.6-6.6,16.9-6.5c14.8,0,26.2,11.8,26.2,26.8s-11.4,26.9-26.3,26.9c-6.1,0-12-2.1-16.6-6
			v26.5h-7.7L297.5,275.4z M305.2,288.6v25.8c4,4.7,9.9,7.3,16,7.2c11,0,19.4-8.6,19.4-20.1s-8.4-20.2-19.4-20.2
			C315,281.2,309.1,283.9,305.2,288.6L305.2,288.6z"/>
		<path d="M358.9,275.4h7.6v5.6c4.6-4.3,10.6-6.6,16.9-6.5c14.8,0,26.2,11.8,26.2,26.8s-11.4,26.9-26.3,26.9c-6.1,0-12-2.1-16.6-6
			v26.5h-7.7L358.9,275.4z M366.6,288.6v25.8c4,4.7,9.9,7.3,16,7.2c11,0,19.4-8.6,19.4-20.1s-8.4-20.2-19.4-20.2
			C376.4,281.2,370.5,283.9,366.6,288.6L366.6,288.6z"/>
		<path d="M427.9,327.5h-7.7v-72.8l7.7-1.8V327.5z"/>
		<path d="M439.7,260.2c0-2.9,2.3-5.2,5.2-5.2c2.8,0,5.2,2.3,5.2,5.1c0,0,0,0.1,0,0.1c0,2.9-2.3,5.2-5.2,5.2
			C442,265.4,439.7,263.1,439.7,260.2z M448.7,327.5h-7.6v-52.1h7.7L448.7,327.5z"/>
		<path d="M501.3,315l4.8,5.2c-5.4,5.3-12.6,8.3-20.2,8.3c-14.9,0-26.5-11.9-26.5-27s11.6-27,26.5-27c7.6,0,14.9,3,20.4,8.2
			l-4.9,5.6c-4-4.3-9.5-6.8-15.4-6.9c-10.7,0-19,8.9-19,20c0,11.3,8.4,20.1,19.1,20.1C491.8,321.5,496.9,319.3,501.3,315z"/>
		<path d="M512.4,312.8c0-9.8,8-15.9,20.8-15.9c5.3,0,10.5,1.2,15.3,3.5v-6.9c0-8.3-4.8-12.6-13.8-12.6c-5.1,0-10.1,1.4-16.3,4.6
			l-2.9-5.9c7.5-3.6,13.6-5.2,20-5.2c13.2,0,20.6,6.5,20.6,18.1v35h-7.5v-5.1c-4.7,4-10.7,6.2-16.8,6
			C520.2,328.5,512.4,322.1,512.4,312.8z M532.9,322.4c6.2,0,11.3-1.9,15.5-6v-9.8c-4.3-2.9-9-4.2-15.1-4.2c-8.3,0-13.6,4-13.6,10.1
			C519.7,318.4,525.1,322.4,532.9,322.4z"/>
		<path d="M573.2,282H562v-6.5h11.2v-13.2l7.6-2v15.2h15.7v6.6h-15.7v31.9c0,5.6,2.3,7.8,8,7.8c2.6,0.1,5.2-0.4,7.6-1.4v6.8
			c-3,0.9-6.1,1.4-9.2,1.4c-9,0-14-4.4-14-12.6L573.2,282z"/>
		<path d="M603.4,260.2c0-2.9,2.3-5.2,5.2-5.2c2.8,0,5.2,2.3,5.2,5.1c0,0,0,0.1,0,0.1c0,2.9-2.3,5.2-5.2,5.2
			C605.7,265.4,603.4,263.1,603.4,260.2z M612.4,327.5h-7.7v-52.1h7.7V327.5z"/>
		<path d="M649.7,274.4c14.8,0,26.5,11.9,26.5,27s-11.8,27.1-26.5,27.1s-26.6-11.9-26.6-27.1S634.9,274.4,649.7,274.4z M668.7,301.4
			c0-11.3-8.3-20.2-18.9-20.2s-19,8.8-19,20.2s8.3,20.3,19,20.3S668.7,312.8,668.7,301.4L668.7,301.4z"/>
		<path d="M687,275.4h7.7v6.1c4.1-4.8,9.7-7.2,16.4-7.2c11.8,0,20.1,8.2,20.1,20.2v33h-7.6v-31.4c0-9.3-5.6-15-14.6-15
			c-5.9-0.1-11.4,2.9-14.3,8v38.4H687V275.4z"/>
		<path d="M766.3,309.5c7.5,8,16,12.1,25.5,12.1c11.4,0,19.5-5.9,19.5-14.4c0-7.5-4.8-11.1-16.7-13.1l-10.5-1.7
			c-14-2.3-20.5-8.1-20.5-18.4c0-12.1,10.3-20.3,25.6-20.3c10.4,0,20.4,3.4,28.7,9.7l-4.6,6.2c-8-6-16.1-9-24.4-9
			c-10.4,0-17.5,5.2-17.5,12.8c0,6.8,4.2,10.1,14.8,11.8l10.4,1.7c15.9,2.6,22.8,8.6,22.8,20c0,12.8-11.4,21.7-27.9,21.7
			c-11.6,0-22.6-5-30.4-13.6L766.3,309.5z"/>
		<path d="M854.3,328.5c-14.7,0.2-26.7-11.6-26.8-26.3c0-0.2,0-0.5,0-0.7c0-15,11.3-26.8,25.7-26.8c13.8,0,24.7,11.9,24.7,26.8v2.4
			h-42.8c1.1,10.3,9.3,17.9,19.5,17.9c5.4,0,10.8-1.8,14.4-4.8l4.8,5.1C868.2,326.4,861.3,328.6,854.3,328.5z M835.3,297.7h34.8
			c-1.3-9.3-8.5-16.3-17.2-16.3C843.9,281.4,836.7,288.1,835.3,297.7L835.3,297.7z"/>
		<path d="M888.5,275.4h7.7v7.4c2.9-5.3,8.5-8.6,14.6-8.5c1.7,0,3.3,0.2,4.9,0.7v7.1c-1.7-0.6-3.6-0.9-5.4-0.9
			c-6.5,0-11.3,3.8-14,10.7v35.7h-7.7L888.5,275.4z"/>
		<path d="M920.5,275.4h8.5l17.8,42.1l17.8-42.1h8.2l-22.5,52.1h-7.3L920.5,275.4z"/>
		<path d="M978.6,260.2c0-2.9,2.3-5.2,5.2-5.2c2.8,0,5.2,2.3,5.2,5.1c0,0,0,0.1,0,0.1c0,2.9-2.3,5.2-5.2,5.2
			C980.9,265.4,978.6,263.1,978.6,260.2z M987.6,327.5h-7.7v-52.1h7.7V327.5z"/>
		<path d="M1040.3,315l4.8,5.2c-5.4,5.3-12.6,8.3-20.2,8.3c-14.9,0-26.5-11.9-26.5-27s11.6-27,26.5-27c7.6,0,14.9,3,20.4,8.2
			l-4.9,5.6c-4-4.3-9.6-6.7-15.4-6.8c-10.7,0-19,8.9-19,20c0,11.3,8.4,20.1,19.1,20.1C1030.7,321.5,1035.8,319.3,1040.3,315z"/>
		<path d="M1076.4,328.5c-14.7,0.2-26.7-11.6-26.8-26.3c0-0.2,0-0.5,0-0.7c0-15,11.3-26.8,25.7-26.8c13.8,0,24.6,11.9,24.6,26.8v2.4
			h-42.7c1.1,10.3,9.3,17.9,19.6,17.9c5.4,0,10.8-1.8,14.3-4.8l4.8,5.1C1090.3,326.4,1083.5,328.6,1076.4,328.5z M1057.4,297.7h34.8
			c-1.3-9.3-8.5-16.3-17.2-16.3C1066.1,281.4,1058.9,288.1,1057.4,297.7L1057.4,297.7z"/>
		<path d="M1110.6,315.4c4.6,4.4,10.6,6.9,17,7c8.3,0,14.2-3.9,14.2-9.4c0-4.5-3-7-9.7-7.9l-9-1.2c-10.4-1.6-15.4-6.1-15.4-14
			c0-8.7,8.1-15.2,19.6-15.2c7.4-0.1,14.6,2.4,20.5,6.9l-4.1,5.2c-5.8-4-11.1-5.8-16.9-5.8c-7.2,0-12.1,3.5-12.1,8.6
			c0,4.5,2.8,6.7,9.7,7.7l9,1.2c10.4,1.5,15.6,6.1,15.6,14.1c0,9-9.2,15.9-21.1,15.9c-8.6,0-16.4-2.9-21.9-8.1L1110.6,315.4z"/>
	</g>
	<g>
		<g>
			<path class="st0" d="M128.1,85c12.5,0,30.6-2.6,30.6-17.5c0-1.1-0.1-2.3-0.3-3.4l-7.4-32.4c-1.7-7.1-3.2-10.4-15.7-16.6
				C125.5,10.2,104.3,2,98.1,2c-5.8,0-7.6,7.5-14.4,7.5c-6.7,0-11.6-5.6-17.9-5.6c-6,0-9.9,4.1-12.9,12.5c0,0-8.4,23.7-9.5,27.2
				c-0.2,0.6-0.3,1.3-0.2,1.9C43.1,54.8,79.4,85,128.1,85 M160.6,73.6c1.7,8.2,1.7,9.1,1.7,10.1c0,14-15.7,21.8-36.4,21.8
				c-46.8,0-87.8-27.4-87.8-45.5c0-2.5,0.5-5,1.5-7.3C22.8,53.5,1.1,56.5,1.1,75.7c0,31.5,74.6,70.3,133.6,70.3
				c45.3,0,56.7-20.5,56.7-36.7C191.4,96.6,180.4,82.2,160.6,73.6"/>
			<path d="M160.6,73.6c1.7,8.2,1.7,9.1,1.7,10.1c0,14-15.7,21.8-36.4,21.8c-46.8,0-87.7-27.4-87.7-45.5c0-2.5,0.5-5,1.5-7.3
				l3.7-9.1c-0.2,0.6-0.3,1.3-0.2,1.9c0,9.2,36.3,39.5,85,39.5c12.5,0,30.6-2.6,30.6-17.5c0-1.1-0.1-2.3-0.3-3.4L160.6,73.6z"/>
		</g>
		<path d="M580.3,94.3c0,11.9,7.2,17.7,20.2,17.7c4-0.1,8-0.7,11.9-1.7V96.5c-2.5,0.8-5.1,1.2-7.7,1.2c-5.4,0-7.4-1.7-7.4-6.7V69.8
			h15.6V55.6h-15.6v-18l-17,3.7v14.3h-11.3v14.2h11.2L580.3,94.3z M527.3,94.6c0-3.7,3.7-5.5,9.3-5.5c3.4,0,6.8,0.4,10.1,1.3v7.2
			c-3.2,1.8-6.9,2.7-10.6,2.6C530.6,100.2,527.3,98.1,527.3,94.6 M532.5,112.2c6,0,10.8-1.3,15.4-4.3v3.4h16.8V75.6
			c0-13.6-9.1-21-24.4-21c-8.5,0-16.9,2-26,6.1l6.1,12.5c6.5-2.7,12-4.4,16.8-4.4c7,0,10.6,2.7,10.6,8.3v2.7
			c-4.1-1.1-8.4-1.6-12.6-1.6c-14.3,0-22.9,6-22.9,16.7C512.3,104.8,520.1,112.2,532.5,112.2 M440.1,111.3h18.1V82.4h30.3v28.8h18.1
			V37.6h-18.1v28.3h-30.3V37.6h-18.1L440.1,111.3z M371.2,83.4c0-8,6.3-14.1,14.6-14.1c4.3-0.1,8.5,1.4,11.8,4.3V93
			c-3.2,3-7.4,4.6-11.8,4.4C377.6,97.4,371.2,91.3,371.2,83.4 M397.8,111.2h16.8V33.9l-17,3.7v20.9c-4.3-2.5-9.2-3.7-14.2-3.7
			c-16.2,0-28.9,12.5-28.9,28.5c-0.2,15.6,12.3,28.4,27.9,28.6c0.2,0,0.3,0,0.5,0c5.4,0,10.6-1.7,14.9-4.8V111.2z M320.6,68.5
			c5.4,0,9.9,3.5,11.7,8.8h-23.2C310.7,71.8,315,68.5,320.6,68.5 M291.9,83.5c0,16.2,13.2,28.8,30.3,28.8c9.4,0,16.2-2.5,23.2-8.4
			l-11.3-10c-2.6,2.7-6.5,4.2-11.1,4.2c-5.9,0.2-11.4-3.3-13.7-8.8H349v-4.2c0-17.7-11.9-30.4-28.1-30.4
			c-15.8-0.2-28.8,12.4-29,28.1C291.9,83,291.9,83.2,291.9,83.5 M262.6,53.1c6,0,9.4,3.8,9.4,8.3s-3.4,8.3-9.4,8.3h-17.9V53.1H262.6
			z M226.6,111.2h18.1V84.4h13.8l13.9,26.8h20.2l-16.2-29.5c8.4-3.4,13.9-11.6,13.9-20.7c0-13.2-10.4-23.5-26-23.5h-37.6
			L226.6,111.2z"/>
	</g>
</g>
</svg>
